<svg width="64" height="64" viewBox="0 0 64 64" fill="none" xmlns="http://www.w3.org/2000/svg">
<g clip-path="url(#clip0_483_6795)">
<circle cx="32" cy="32" r="32" fill="#0C4DAE" fill-opacity="0.05"/>
<path d="M32.0482 27.1476C27.3341 27.1476 22.6021 27.1319 17.8904 27.25C17.0182 27.2718 16.143 27.2507 15.2705 27.2507C14.8909 27.2507 14.4308 27.1788 14.0613 27.2723C13.5296 27.407 12.5413 28.1074 12.1627 28.5149C11.8861 28.8126 12.0459 29.6963 12.0459 30.0866C12.0459 31.5474 12.0963 33.0065 12.0963 34.4693V52H52V12.0402C48.2613 12.0402 44.4968 11.9225 40.7645 12.0898C39.811 12.1325 38.847 12.0918 37.8926 12.0918C37.5044 12.0918 37.0076 12.0078 36.6331 12.1181C36.1741 12.2533 35.7276 12.7013 35.3231 12.9584C34.2002 13.6724 33.0979 14.4353 31.9978 15.1855C30.827 15.9838 29.6414 16.7587 28.4709 17.5573C28.2162 17.7311 27.3571 18.1083 27.3132 18.4386C27.2857 18.6457 27.5276 18.932 27.6215 19.1041C27.922 19.6551 28.2233 20.206 28.5289 20.754C29.7129 22.8782 30.8429 25.0363 32.0482 27.1476ZM23.1303 12.1434V22.9712H23.0799C22.5533 21.954 21.0101 21.9063 20.1577 22.453C19.0917 23.1368 18.8112 24.7521 19.62 25.7555C19.8634 26.0574 20.1535 26.3015 20.5103 26.4455C20.9202 26.611 21.3388 26.6408 21.7699 26.5735C22.3308 26.486 22.7395 26.1543 23.1303 25.7555C23.1303 25.9607 23.0699 26.9695 23.5534 26.579C23.7206 26.4438 23.6341 25.9504 23.6341 25.7555V23.3321V15.1855C23.6341 14.2474 23.9107 12.828 23.1303 12.1434ZM22.7272 13.4839C22.4002 14.6544 21.7707 15.8277 21.2815 16.9385C21.0816 17.3923 20.9417 18.0379 20.6263 18.4195C20.308 18.8046 19.6204 18.6948 19.2903 19.0669C18.8517 19.5612 18.5484 20.2849 18.2129 20.8572C17.546 21.9945 16.8643 23.1229 16.1975 24.2602C15.7812 24.9702 15.0484 25.8246 14.8674 26.632H20.0569C19.5481 25.9924 19.0057 25.6078 18.8698 24.7242C18.6467 23.2733 19.8062 21.8904 21.2157 21.7898C21.7991 21.7482 22.2509 22.0019 22.7776 22.1977V16.062C22.7776 15.3382 22.9996 14.1482 22.7272 13.4839ZM24.0876 13.8964V26.632H24.541V25.807C24.984 26.126 25.2944 26.4599 25.851 26.567C26.1952 26.6332 26.5161 26.6263 26.8587 26.5454C29.2202 25.9877 28.8876 22.4847 26.6067 22.1173C26.273 22.0635 25.9203 22.1051 25.5991 22.2091C25.1849 22.3431 24.8468 22.6132 24.541 22.9196V16.4745C24.541 15.6228 24.7378 14.5548 24.0876 13.8964ZM24.8937 15.3917V22.1977C25.625 21.8862 26.2674 21.6504 27.0602 21.9152C29.2429 22.6441 29.2429 25.3451 27.564 26.5804V26.632H30.8893L29.5949 24.1055L26.9246 19.1041L25.5197 16.4745L24.8937 15.3917ZM21.2661 22.5742C23.3738 22.362 23.7908 25.8434 21.6692 26.1069C19.3045 26.4005 18.8845 22.814 21.2661 22.5742ZM26.2037 22.5742C28.3067 22.3624 28.7185 25.8447 26.6067 26.1069C24.2397 26.4008 23.8214 22.8141 26.2037 22.5742ZM19.5531 36.1192V36.1708C19.8909 36.1708 20.2839 36.1147 20.6111 36.2115C21.8649 36.5823 21.0651 38.577 21.0646 39.4707L20.3592 39.5738C20.2381 38.8227 20.7921 37.9151 20.5303 37.2023C20.3654 36.7532 19.7178 36.8969 19.3515 36.8924C19.0334 36.8886 18.6212 36.6435 18.3295 36.7099C17.6142 36.8728 17.0574 37.5331 16.3285 37.666L16.0262 37.0473L17.84 36.1192C17.6509 35.6176 17.5316 35.1648 17.5379 34.6239C17.5425 34.2315 17.6675 33.8765 17.8628 33.5412C18.0486 33.2224 18.2842 32.9577 18.5958 32.764C20.4792 31.5931 22.2737 34.0533 20.56 35.5281C20.2671 35.7801 19.9224 36.0103 19.5531 36.1192ZM28.6725 32.5099V33.2834H26.506V34.0052C29.1802 34.3586 28.4709 37.5337 28.4709 39.5222L27.7656 39.4707V36.8926C27.7656 36.4851 27.8438 35.9818 27.6688 35.6036C27.1544 34.4912 25.4039 34.4559 24.8112 35.5005C24.5662 35.9324 24.6418 36.4645 24.6418 36.9442C24.6418 37.7891 24.5914 38.6257 24.5914 39.4707H23.886C23.886 38.1988 23.5795 36.43 24.0815 35.2427C24.2698 34.7974 24.6215 34.4602 25.0449 34.252C25.2348 34.1585 25.6301 34.1225 25.7488 33.9375C25.8547 33.7725 25.8006 33.4723 25.8006 33.2834H23.6341V32.5099H28.6725ZM32.1489 34.4693V34.5208C32.7065 34.5659 33.6909 34.3475 34.0785 34.8872C34.3026 35.1993 34.2234 35.677 34.1099 36.0161C33.8236 36.8715 33.3372 37.6834 32.9426 38.491C32.8166 38.7491 32.6401 39.3796 32.3812 39.5154C32.2012 39.6098 31.9104 39.3861 31.7459 39.316C32.0194 38.3441 32.6516 37.3851 33.0938 36.4801C33.2076 36.2472 33.5987 35.6805 33.4528 35.4138C33.3542 35.2334 33.0202 35.2945 32.8543 35.2942C32.4333 35.2937 31.6049 35.3032 31.4654 34.7784C31.2966 34.1431 32.1717 33.4319 32.7031 33.3349V33.2834L29.7305 33.2318V32.5099C30.7086 32.5099 32.0271 32.2752 32.955 32.6185C34.0839 33.0361 32.683 34.2334 32.1489 34.4693ZM18.495 35.7583C18.8544 35.6709 19.2247 35.5052 19.5531 35.3324C19.7679 35.2194 19.9691 35.0834 20.1431 34.9107C20.6371 34.4202 20.773 33.4697 19.9561 33.2287C19.3422 33.0475 18.7125 33.4543 18.4356 34.0052C18.3047 34.2658 18.2382 34.5376 18.2438 34.8302C18.2502 35.154 18.3484 35.4736 18.495 35.7583ZM40.0087 39.5738H39.5553V36.9442C39.5553 36.4653 39.6036 36.0458 39.1522 35.758C38.6631 35.4462 37.9349 35.6032 37.7026 36.1708C37.5992 36.4234 37.7012 36.7409 37.5644 36.9793C37.4887 37.1115 37.2879 37.1149 37.2176 36.9734C37.1463 36.8296 37.184 36.5852 37.188 36.4286C37.2194 35.1979 38.7426 34.7563 39.6049 35.469C40.0416 35.8301 40.0087 36.3214 40.0087 36.8411L40.0087 39.5738ZM42.5279 36.4801V36.5317C42.8608 36.5317 43.3941 36.4313 43.6669 36.6711C43.905 36.8804 43.8413 37.2486 43.7408 37.5114C43.4613 38.2425 43.0657 38.9991 42.6791 39.6769L42.276 39.4707C42.5947 38.6873 43.2995 37.8455 43.3844 36.9958C43.0346 36.9958 42.5378 37.0669 42.2371 36.8407C41.7455 36.4708 42.5699 35.8765 42.8806 35.7583V35.7067H41.0164V35.2427C41.6029 35.2427 42.253 35.1627 42.8302 35.2746C43.4533 35.3953 43.317 35.8619 42.9308 36.2128C42.8072 36.3251 42.6761 36.408 42.5279 36.4801ZM48.0197 39.5738H47.5663V37.6145C47.5663 37.3259 47.6277 36.9503 47.487 36.6884C47.1056 35.9785 45.9403 36.176 45.7021 36.8926C45.8023 36.8936 45.9058 36.8891 46.0046 36.9104C46.9336 37.1105 45.7004 38.1259 45.5332 38.4395C45.3416 38.799 45.3494 39.1773 45.3494 39.5738H44.8959C44.8959 38.7235 45.0338 37.8433 45.8532 37.4082V37.3567C45.7676 37.3529 45.6848 37.3486 45.6001 37.334C44.9101 37.2149 45.4031 36.7434 45.3594 36.3255C45.3286 36.031 45.0726 35.6607 44.9967 35.3458C45.6169 35.1585 45.3724 35.8255 45.8534 35.9141C46.3448 36.0045 46.7816 35.6887 47.3143 35.9094C48.4531 36.3811 48.0197 38.56 48.0197 39.5738ZM26.6067 41.9972V43.9565C27.1845 43.3706 28.2668 43.1631 28.5919 44.1627C28.8345 44.9086 28.6725 45.9096 28.6725 46.6892H28.1182C28.1182 45.9949 28.3964 44.4801 27.7144 44.0523C27.3332 43.8131 26.8812 44.1053 26.71 44.4721C26.4314 45.0691 26.6067 46.0394 26.6067 46.6892H26.0021V41.9972H26.6067ZM15.9758 46.6892V42.3065C16.8323 42.3065 17.8425 42.2151 18.5958 42.7173C19.6748 43.4366 19.682 45.4731 18.6461 46.236C17.8717 46.8064 16.8754 46.6892 15.9758 46.6892ZM16.5804 42.8221V46.1736C17.1167 46.1736 17.6809 46.221 18.1423 45.8829C18.9404 45.298 19.0147 43.7206 18.1925 43.1128C17.7257 42.7677 17.124 42.8221 16.5804 42.8221ZM46.4578 43.0284V45.1939C46.8842 44.7575 47.2271 44.2148 47.8686 44.2143C47.6785 44.6314 47.2313 44.9948 46.8609 45.2455V45.2971C47.2607 45.651 47.7964 46.1985 48.0197 46.6892C47.2234 46.6892 46.9661 45.9954 46.4578 45.4518V46.6892H46.0044V43.0284H46.4578ZM39.4041 44.8846V44.9361C40.082 45.0618 40.3191 46.0126 39.7546 46.4501C39.2744 46.8221 38.5066 46.6892 37.943 46.6892V44.369C37.943 44.1035 37.8573 43.6472 37.9734 43.4057C38.0517 43.2428 38.3019 43.2862 38.4468 43.2862C38.8523 43.286 39.3608 43.2585 39.6971 43.5337C40.192 43.9387 39.9655 44.7139 39.4041 44.8846ZM22.4753 46.6892H21.9715V46.2252C21.5433 46.5928 21.0924 46.8817 20.5103 46.6764C19.8118 46.4299 19.7293 45.4487 20.3096 45.0212C20.7526 44.6948 21.4038 44.7299 21.9211 44.7299C21.7905 43.7434 20.993 43.8717 20.3088 44.1627C20.3088 44.0214 20.272 43.8036 20.3606 43.6834C20.7209 43.1942 21.9374 43.4396 22.2416 43.8554C22.7311 44.5245 22.4753 45.8963 22.4753 46.6892ZM32.1489 45.2455H29.932C30.2353 46.4413 30.9403 46.2905 31.897 46.122C31.8964 46.8834 30.9717 46.8755 30.3855 46.7001C29.7018 46.4957 29.3531 45.7297 29.3831 45.0393C29.4318 43.9161 30.7002 42.829 31.6908 43.7613C32.0874 44.1345 32.1486 44.7258 32.1489 45.2455ZM34.8696 46.6892C34.8696 46.0306 35.119 44.6899 34.6482 44.1743C34.2947 43.787 33.7417 44.0158 33.5138 44.4206C33.1769 45.0186 33.3581 46.0227 33.3581 46.6892H32.8039V43.544H33.3077V44.0596C33.4556 43.8743 33.5989 43.6973 33.8116 43.5873C33.9515 43.5149 34.1098 43.475 34.265 43.456C35.4782 43.3075 35.4742 44.699 35.4742 45.5549C35.4742 45.8074 35.5812 46.4014 35.4224 46.6066C35.3157 46.7445 35.0209 46.6892 34.8696 46.6892ZM25.1456 43.5956V44.0596C24.8269 44.0117 23.9937 43.6738 23.8735 44.2165C23.8174 44.4701 24.1645 44.6661 24.3395 44.7654C24.7828 45.0169 25.3756 45.2807 25.2724 45.9158C25.1206 46.8509 23.2312 47.1694 23.2311 46.0705C23.5325 46.1963 24.897 46.5258 24.6036 45.7116C24.4297 45.2292 23.6441 45.1726 23.3692 44.7291C22.636 43.5466 24.5294 43.4768 25.1456 43.5956ZM38.3965 44.7299C38.5952 44.7299 38.8039 44.7481 39.0011 44.7202C39.1091 44.7049 39.2113 44.6701 39.2979 44.6003C39.9859 44.0456 38.7785 43.3033 38.4483 43.7298C38.2946 43.9282 38.3965 44.4851 38.3965 44.7299ZM29.9824 44.8846C30.3186 44.8846 31.2513 45.0525 31.5132 44.8316C31.7377 44.6421 31.3916 44.1502 31.2399 44.0304C30.6152 43.5376 29.9953 44.2662 29.9824 44.8846ZM42.4775 46.6892H42.0745V46.3283C41.7313 46.6612 41.2731 46.8746 40.817 46.6149C40.349 46.3483 40.4409 45.6058 40.8655 45.3532C41.2096 45.1484 41.643 45.194 42.0241 45.194C41.9541 44.4048 41.3006 44.5183 40.7645 44.7299C40.7728 44.018 41.9246 43.9983 42.2833 44.4816C42.6734 45.0072 42.4775 46.0668 42.4775 46.6892ZM45.299 46.6892H44.8455C44.8455 46.1524 45.045 45.0822 44.5881 44.7007C44.2822 44.4452 43.9157 44.674 43.7601 44.9878C43.5231 45.4656 43.6363 46.1705 43.6363 46.6892H43.2333V44.2143C43.5507 44.2182 43.6326 44.3019 43.6363 44.6268C44.0284 44.1126 44.9127 43.9415 45.1987 44.6786C45.4269 45.2666 45.299 46.0681 45.299 46.6892ZM21.9211 45.1424C21.688 45.1424 21.4477 45.1255 21.2157 45.1514C21.0961 45.1647 20.9732 45.1928 20.8632 45.244C20.0004 45.6457 20.9046 46.7733 21.6135 46.1103C21.7161 46.0143 21.7931 45.8949 21.8398 45.7611C21.909 45.563 21.9194 45.3503 21.9211 45.1424ZM38.3965 45.1424C38.3965 45.407 38.2832 46.0323 38.4483 46.2456C38.5448 46.3704 38.7691 46.3256 38.9003 46.3062C39.5382 46.2119 39.9415 45.2892 39.1018 45.1534C38.874 45.1166 38.6268 45.1424 38.3965 45.1424ZM42.0241 45.5033C41.8409 45.5033 41.6522 45.4902 41.4699 45.5088C40.295 45.6289 41.523 47.099 41.9732 45.9674C42.0318 45.8202 42.0236 45.659 42.0241 45.5033Z" fill="#172169"/>
</g>
<defs>
<clipPath id="clip0_483_6795">
<rect width="64" height="64" rx="32" fill="white"/>
</clipPath>
</defs>
</svg>
